# xmcd
#
# Track frame offsets: 
#        150
#        20188
#        39481
#        60052
#        77568
#        93036
#        113676
#        137758
#        155410
#        175873
#
# Disc length: 2577 seconds
#
# Revision: 0
# Processed by: cddbd v1.5.1PL0 Copyright (c) Steve Scherf et al.
# Submitted via: ExactAudioCopy v0.90b4
#
DISCID=6d0a0f0a
DTITLE=Schmidt and Scott - Ultimate Jam Tracks - Harmonica Edition
DYEAR=2004
DGENRE=
TTITLE0=Rockin Boogie - E
TTITLE1=Quick 2 Feel - A
TTITLE2=Slow Minor - D
TTITLE3=Marching Shuffle - F
TTITLE4=One Chord Groove - G
TTITLE5=West Coast Swing - D
TTITLE6=Slow Blues - E
TTITLE7=Funky - G
TTITLE8=Medium SHuffle - E
TTITLE9=Quick Swing - C
EXTD=
EXTT0=
EXTT1=
EXTT2=
EXTT3=
EXTT4=
EXTT5=
EXTT6=
EXTT7=
EXTT8=
EXTT9=
PLAYORDER=
